%TF.GenerationSoftware,KiCad,Pcbnew,9.0.6*%
%TF.CreationDate,2025-12-12T19:26:19-08:00*%
%TF.ProjectId,iambic-controller-board,69616d62-6963-42d6-936f-6e74726f6c6c,1.0*%
%TF.SameCoordinates,Original*%
%TF.FileFunction,Soldermask,Top*%
%TF.FilePolarity,Negative*%
%FSLAX46Y46*%
G04 Gerber Fmt 4.6, Leading zero omitted, Abs format (unit mm)*
G04 Created by KiCad (PCBNEW 9.0.6) date 2025-12-12 19:26:19*
%MOMM*%
%LPD*%
G01*
G04 APERTURE LIST*
G04 Aperture macros list*
%AMRoundRect*
0 Rectangle with rounded corners*
0 $1 Rounding radius*
0 $2 $3 $4 $5 $6 $7 $8 $9 X,Y pos of 4 corners*
0 Add a 4 corners polygon primitive as box body*
4,1,4,$2,$3,$4,$5,$6,$7,$8,$9,$2,$3,0*
0 Add four circle primitives for the rounded corners*
1,1,$1+$1,$2,$3*
1,1,$1+$1,$4,$5*
1,1,$1+$1,$6,$7*
1,1,$1+$1,$8,$9*
0 Add four rect primitives between the rounded corners*
20,1,$1+$1,$2,$3,$4,$5,0*
20,1,$1+$1,$4,$5,$6,$7,0*
20,1,$1+$1,$6,$7,$8,$9,0*
20,1,$1+$1,$8,$9,$2,$3,0*%
G04 Aperture macros list end*
%ADD10RoundRect,0.225000X-0.225000X-0.250000X0.225000X-0.250000X0.225000X0.250000X-0.225000X0.250000X0*%
%ADD11RoundRect,0.162500X0.650000X0.162500X-0.650000X0.162500X-0.650000X-0.162500X0.650000X-0.162500X0*%
%ADD12RoundRect,0.100000X0.100000X-0.130000X0.100000X0.130000X-0.100000X0.130000X-0.100000X-0.130000X0*%
%ADD13RoundRect,0.100000X-0.100000X0.130000X-0.100000X-0.130000X0.100000X-0.130000X0.100000X0.130000X0*%
%ADD14RoundRect,0.100000X-0.130000X-0.100000X0.130000X-0.100000X0.130000X0.100000X-0.130000X0.100000X0*%
%ADD15O,3.500000X2.500000*%
%ADD16O,2.500000X3.500000*%
%ADD17O,3.000000X1.500000*%
%ADD18R,1.700000X1.700000*%
%ADD19C,1.700000*%
%ADD20C,0.787400*%
%ADD21C,0.990600*%
%ADD22RoundRect,0.300000X-3.200000X-0.700000X3.200000X-0.700000X3.200000X0.700000X-3.200000X0.700000X0*%
%ADD23RoundRect,0.225000X-2.775000X-0.525000X2.775000X-0.525000X2.775000X0.525000X-2.775000X0.525000X0*%
G04 APERTURE END LIST*
D10*
%TO.C,C5*%
X150350000Y-101750000D03*
X148800000Y-101750000D03*
%TD*%
D11*
%TO.C,U2*%
X152225000Y-101905000D03*
X152225000Y-100635000D03*
X152225000Y-99365000D03*
X152225000Y-98095000D03*
X159400000Y-98095000D03*
X159400000Y-99365000D03*
X159400000Y-100635000D03*
X159400000Y-101905000D03*
%TD*%
D12*
%TO.C,D4*%
X157700000Y-104445000D03*
X157700000Y-103805000D03*
%TD*%
D13*
%TO.C,R4*%
X157700000Y-106245000D03*
X157700000Y-105605000D03*
%TD*%
D14*
%TO.C,R3*%
X147930000Y-96650000D03*
X148570000Y-96650000D03*
%TD*%
D12*
%TO.C,D3*%
X145700000Y-97970000D03*
X145700000Y-97330000D03*
%TD*%
%TO.C,D5*%
X159700000Y-104445000D03*
X159700000Y-103805000D03*
%TD*%
D13*
%TO.C,R5*%
X159700000Y-105605000D03*
X159700000Y-106245000D03*
%TD*%
D14*
%TO.C,R2*%
X147930000Y-97475000D03*
X148570000Y-97475000D03*
%TD*%
D12*
%TO.C,R1*%
X149350000Y-100175000D03*
X149350000Y-99535000D03*
%TD*%
D15*
%TO.C,J2*%
X170500000Y-95500000D03*
D16*
X174000000Y-100000000D03*
D17*
X165700000Y-105000000D03*
%TD*%
D18*
%TO.C,J1*%
X157600000Y-94325000D03*
D19*
X155060000Y-94325000D03*
X152520000Y-94325000D03*
X149980000Y-94325000D03*
%TD*%
D12*
%TO.C,D2*%
X145700000Y-96070000D03*
X145700000Y-95430000D03*
%TD*%
%TO.C,D1*%
X148400000Y-100165000D03*
X148400000Y-99525000D03*
%TD*%
D20*
%TO.C,J3*%
X147255000Y-106110000D03*
X147255000Y-104840000D03*
X148525000Y-106110000D03*
X148525000Y-104840000D03*
X149795000Y-106110000D03*
X149795000Y-104840000D03*
D21*
X145985000Y-104459000D03*
X145985000Y-106491000D03*
X151065000Y-105475000D03*
%TD*%
D22*
%TO.C,U1*%
X135975000Y-96250000D03*
D23*
X135975000Y-99000000D03*
X135975000Y-101000000D03*
D22*
X135975000Y-103750000D03*
%TD*%
M02*
