%TF.GenerationSoftware,KiCad,Pcbnew,9.0.6*%
%TF.CreationDate,2025-12-12T19:26:18-08:00*%
%TF.ProjectId,iambic-controller-board,69616d62-6963-42d6-936f-6e74726f6c6c,1.0*%
%TF.SameCoordinates,Original*%
%TF.FileFunction,Copper,L2,Bot*%
%TF.FilePolarity,Positive*%
%FSLAX46Y46*%
G04 Gerber Fmt 4.6, Leading zero omitted, Abs format (unit mm)*
G04 Created by KiCad (PCBNEW 9.0.6) date 2025-12-12 19:26:18*
%MOMM*%
%LPD*%
G01*
G04 APERTURE LIST*
%TA.AperFunction,ComponentPad*%
%ADD10O,3.500000X2.500000*%
%TD*%
%TA.AperFunction,ComponentPad*%
%ADD11O,2.500000X3.500000*%
%TD*%
%TA.AperFunction,ComponentPad*%
%ADD12O,3.000000X1.500000*%
%TD*%
%TA.AperFunction,ComponentPad*%
%ADD13R,1.700000X1.700000*%
%TD*%
%TA.AperFunction,ComponentPad*%
%ADD14C,1.700000*%
%TD*%
%TA.AperFunction,ViaPad*%
%ADD15C,0.600000*%
%TD*%
%TA.AperFunction,Conductor*%
%ADD16C,0.200000*%
%TD*%
G04 APERTURE END LIST*
D10*
%TO.P,J2,T*%
%TO.N,/AUDIO_TIP*%
X170500000Y-95500000D03*
D11*
%TO.P,J2,S*%
%TO.N,GND*%
X174000000Y-100000000D03*
D12*
%TO.P,J2,R*%
%TO.N,/AUDIO_RING*%
X165700000Y-105000000D03*
%TD*%
D13*
%TO.P,J1,1,Pin_1*%
%TO.N,/RESET*%
X157600000Y-94325000D03*
D14*
%TO.P,J1,2,Pin_2*%
%TO.N,/USB_DP*%
X155060000Y-94325000D03*
%TO.P,J1,3,Pin_3*%
%TO.N,/USB_DN*%
X152520000Y-94325000D03*
%TO.P,J1,4,Pin_4*%
%TO.N,/MISO*%
X149980000Y-94325000D03*
%TD*%
D15*
%TO.N,GND*%
X146450000Y-102375000D03*
%TO.N,/AUDIO_TIP*%
X154552378Y-102097622D03*
X154927378Y-100522622D03*
X154375000Y-98500000D03*
X154650000Y-104550000D03*
%TO.N,GND*%
X156975000Y-106183500D03*
%TO.N,/AUDIO_RING*%
X153025000Y-104870000D03*
%TO.N,GND*%
X158000000Y-98100000D03*
%TO.N,/AUDIO_RING*%
X161105000Y-105025000D03*
%TO.N,/RESET*%
X160825000Y-97775000D03*
%TO.N,GND*%
X143700000Y-98925000D03*
X144300000Y-96275000D03*
%TO.N,/RESET*%
X152650000Y-106700000D03*
X147975000Y-103850000D03*
%TO.N,/AUDIO_RING*%
X153950000Y-100675000D03*
%TO.N,/MISO*%
X151650000Y-103675000D03*
X150325000Y-98850000D03*
%TO.N,/USB_DN*%
X157825000Y-100650000D03*
X150600000Y-97425000D03*
%TO.N,/USB_DP*%
X157750000Y-99325000D03*
X152100000Y-96650000D03*
%TD*%
D16*
%TO.N,/MISO*%
X150325000Y-103000000D02*
X150325000Y-98850000D01*
%TO.N,GND*%
X147200000Y-103125000D02*
X146450000Y-102375000D01*
%TO.N,/AUDIO_RING*%
X153950000Y-100675000D02*
X153950000Y-103945000D01*
%TO.N,/AUDIO_TIP*%
X154650000Y-104550000D02*
X154650000Y-102195244D01*
%TO.N,GND*%
X144300000Y-96275000D02*
X144300000Y-98325000D01*
X144300000Y-98325000D02*
X143700000Y-98925000D01*
%TO.N,/AUDIO_TIP*%
X154650000Y-102195244D02*
X154552378Y-102097622D01*
X154927378Y-99052378D02*
X154375000Y-98500000D01*
X154927378Y-100522622D02*
X154927378Y-99052378D01*
%TO.N,GND*%
X156975000Y-106183500D02*
X155965500Y-106183500D01*
X155965500Y-106183500D02*
X155250000Y-106899000D01*
%TO.N,/AUDIO_RING*%
X153950000Y-103945000D02*
X153025000Y-104870000D01*
%TO.N,GND*%
X174000000Y-100000000D02*
X172214000Y-101786000D01*
X172214000Y-101786000D02*
X161686000Y-101786000D01*
X158000000Y-98100000D02*
X161686000Y-101786000D01*
X161686000Y-101786000D02*
X161686000Y-105265659D01*
X161686000Y-105265659D02*
X160052659Y-106899000D01*
X150675000Y-104225000D02*
X149575000Y-103125000D01*
X160052659Y-106899000D02*
X155250000Y-106899000D01*
X151350000Y-104225000D02*
X150675000Y-104225000D01*
X155250000Y-106899000D02*
X153801000Y-105450000D01*
X152575000Y-105450000D02*
X151350000Y-104225000D01*
X153801000Y-105450000D02*
X152575000Y-105450000D01*
X149575000Y-103125000D02*
X147200000Y-103125000D01*
%TO.N,/MISO*%
X151650000Y-103675000D02*
X151000000Y-103675000D01*
X151000000Y-103675000D02*
X150325000Y-103000000D01*
%TO.N,/AUDIO_RING*%
X161105000Y-105025000D02*
X158300000Y-105025000D01*
X158300000Y-105025000D02*
X153950000Y-100675000D01*
%TO.N,/RESET*%
X157600000Y-94325000D02*
X157650000Y-94325000D01*
X157650000Y-94325000D02*
X160825000Y-97500000D01*
X160825000Y-97500000D02*
X160825000Y-97775000D01*
%TO.N,GND*%
X146450000Y-101675000D02*
X143700000Y-98925000D01*
X146450000Y-102375000D02*
X146450000Y-101675000D01*
%TO.N,/RESET*%
X147125000Y-106899000D02*
X147000000Y-106774000D01*
X147000000Y-106774000D02*
X147000000Y-103850000D01*
X152650000Y-106700000D02*
X152451000Y-106899000D01*
X152451000Y-106899000D02*
X147125000Y-106899000D01*
X147000000Y-103850000D02*
X147975000Y-103850000D01*
%TO.N,/USB_DP*%
X155060000Y-94325000D02*
X155060000Y-96635000D01*
X155060000Y-96635000D02*
X155075000Y-96650000D01*
%TO.N,/MISO*%
X149980000Y-98505000D02*
X150325000Y-98850000D01*
X149980000Y-94325000D02*
X149980000Y-98505000D01*
%TO.N,/USB_DN*%
X152050000Y-94795000D02*
X152050000Y-95700000D01*
X150600000Y-97150000D02*
X150600000Y-97425000D01*
X152520000Y-94325000D02*
X152050000Y-94795000D01*
X152050000Y-95700000D02*
X150600000Y-97150000D01*
X150600000Y-97425000D02*
X154600000Y-97425000D01*
X154600000Y-97425000D02*
X157825000Y-100650000D01*
%TO.N,/USB_DP*%
X155075000Y-96650000D02*
X157750000Y-99325000D01*
X152100000Y-96650000D02*
X155075000Y-96650000D01*
%TD*%
%TA.AperFunction,Conductor*%
%TO.N,GND*%
G36*
X149190816Y-93020185D02*
G01*
X149236571Y-93072989D01*
X149246515Y-93142147D01*
X149217490Y-93205703D01*
X149196664Y-93224816D01*
X149185857Y-93232669D01*
X149100207Y-93294896D01*
X148949890Y-93445213D01*
X148824951Y-93617179D01*
X148728444Y-93806585D01*
X148662753Y-94008760D01*
X148635460Y-94181081D01*
X148629500Y-94218713D01*
X148629500Y-94431287D01*
X148662754Y-94641243D01*
X148706625Y-94776264D01*
X148728444Y-94843414D01*
X148824951Y-95032820D01*
X148949890Y-95204786D01*
X149100213Y-95355109D01*
X149272184Y-95480051D01*
X149272184Y-95480052D01*
X149311793Y-95500233D01*
X149362590Y-95548206D01*
X149379500Y-95610718D01*
X149379500Y-98418330D01*
X149379499Y-98418348D01*
X149379499Y-98584054D01*
X149379498Y-98584054D01*
X149420422Y-98736783D01*
X149448798Y-98785932D01*
X149499479Y-98873716D01*
X149500850Y-98875502D01*
X149502087Y-98878232D01*
X149503543Y-98880754D01*
X149503294Y-98880897D01*
X149524092Y-98926797D01*
X149555261Y-99083491D01*
X149555264Y-99083501D01*
X149615602Y-99229172D01*
X149615609Y-99229185D01*
X149703602Y-99360874D01*
X149724480Y-99427551D01*
X149724500Y-99429765D01*
X149724500Y-102913330D01*
X149724499Y-102913348D01*
X149724499Y-103079054D01*
X149724498Y-103079054D01*
X149736568Y-103124097D01*
X149765423Y-103231785D01*
X149775639Y-103249480D01*
X149775651Y-103249500D01*
X149844477Y-103368712D01*
X149844481Y-103368717D01*
X149963349Y-103487585D01*
X149963355Y-103487590D01*
X150515139Y-104039374D01*
X150515149Y-104039385D01*
X150519479Y-104043715D01*
X150519480Y-104043716D01*
X150631284Y-104155520D01*
X150701865Y-104196269D01*
X150718095Y-104205639D01*
X150718097Y-104205641D01*
X150750762Y-104224500D01*
X150768215Y-104234577D01*
X150920943Y-104275500D01*
X151070234Y-104275500D01*
X151137273Y-104295185D01*
X151139125Y-104296398D01*
X151270814Y-104384390D01*
X151270827Y-104384397D01*
X151367646Y-104424500D01*
X151416503Y-104444737D01*
X151552487Y-104471786D01*
X151571153Y-104475499D01*
X151571156Y-104475500D01*
X151571158Y-104475500D01*
X151728844Y-104475500D01*
X151728845Y-104475499D01*
X151883497Y-104444737D01*
X152026400Y-104385545D01*
X152029172Y-104384397D01*
X152029172Y-104384396D01*
X152029179Y-104384394D01*
X152156764Y-104299143D01*
X152223441Y-104278266D01*
X152290821Y-104296750D01*
X152337512Y-104348729D01*
X152348688Y-104417699D01*
X152328759Y-104471135D01*
X152315607Y-104490818D01*
X152315602Y-104490827D01*
X152255264Y-104636498D01*
X152255261Y-104636510D01*
X152224500Y-104791153D01*
X152224500Y-104948846D01*
X152255261Y-105103489D01*
X152255264Y-105103501D01*
X152315602Y-105249172D01*
X152315609Y-105249185D01*
X152403210Y-105380288D01*
X152403213Y-105380292D01*
X152514707Y-105491786D01*
X152514711Y-105491789D01*
X152645814Y-105579390D01*
X152645827Y-105579397D01*
X152791498Y-105639735D01*
X152791503Y-105639737D01*
X152930000Y-105667286D01*
X152946153Y-105670499D01*
X152946156Y-105670500D01*
X152946158Y-105670500D01*
X153103844Y-105670500D01*
X153103845Y-105670499D01*
X153258497Y-105639737D01*
X153404179Y-105579394D01*
X153535289Y-105491789D01*
X153646789Y-105380289D01*
X153734394Y-105249179D01*
X153794737Y-105103497D01*
X153796516Y-105094549D01*
X153828901Y-105032640D01*
X153889616Y-104998065D01*
X153959386Y-105001804D01*
X154016058Y-105042670D01*
X154021227Y-105049837D01*
X154028211Y-105060289D01*
X154028214Y-105060293D01*
X154139707Y-105171786D01*
X154139711Y-105171789D01*
X154270814Y-105259390D01*
X154270827Y-105259397D01*
X154416498Y-105319735D01*
X154416503Y-105319737D01*
X154571153Y-105350499D01*
X154571156Y-105350500D01*
X154571158Y-105350500D01*
X154728844Y-105350500D01*
X154728845Y-105350499D01*
X154883497Y-105319737D01*
X155029179Y-105259394D01*
X155160289Y-105171789D01*
X155271789Y-105060289D01*
X155359394Y-104929179D01*
X155419737Y-104783497D01*
X155450500Y-104628842D01*
X155450500Y-104471158D01*
X155450500Y-104471155D01*
X155450499Y-104471153D01*
X155445245Y-104444738D01*
X155419737Y-104316503D01*
X155419367Y-104315609D01*
X155359397Y-104170827D01*
X155359390Y-104170814D01*
X155271398Y-104039125D01*
X155250520Y-103972447D01*
X155250500Y-103970234D01*
X155250500Y-103124097D01*
X155270185Y-103057058D01*
X155322989Y-103011303D01*
X155392147Y-103001359D01*
X155455703Y-103030384D01*
X155462181Y-103036416D01*
X157815139Y-105389374D01*
X157815149Y-105389385D01*
X157819479Y-105393715D01*
X157819480Y-105393716D01*
X157931284Y-105505520D01*
X157982845Y-105535288D01*
X158018095Y-105555639D01*
X158018097Y-105555641D01*
X158056151Y-105577611D01*
X158068215Y-105584577D01*
X158220943Y-105625501D01*
X158220946Y-105625501D01*
X158386653Y-105625501D01*
X158386669Y-105625500D01*
X160525234Y-105625500D01*
X160592273Y-105645185D01*
X160594125Y-105646398D01*
X160725814Y-105734390D01*
X160725827Y-105734397D01*
X160821096Y-105773858D01*
X160871503Y-105794737D01*
X160994501Y-105819203D01*
X161026153Y-105825499D01*
X161026156Y-105825500D01*
X161026158Y-105825500D01*
X161183844Y-105825500D01*
X161183845Y-105825499D01*
X161338497Y-105794737D01*
X161484179Y-105734394D01*
X161615289Y-105646789D01*
X161726789Y-105535289D01*
X161814394Y-105404179D01*
X161815486Y-105401544D01*
X161849371Y-105319737D01*
X161874737Y-105258497D01*
X161905500Y-105103842D01*
X161905500Y-104946158D01*
X161905500Y-104946155D01*
X161905499Y-104946153D01*
X161900477Y-104920902D01*
X161896633Y-104901577D01*
X163699500Y-104901577D01*
X163699500Y-105098422D01*
X163730290Y-105292826D01*
X163791117Y-105480029D01*
X163870128Y-105635096D01*
X163880476Y-105655405D01*
X163996172Y-105814646D01*
X164135354Y-105953828D01*
X164294595Y-106069524D01*
X164377455Y-106111743D01*
X164469970Y-106158882D01*
X164469972Y-106158882D01*
X164469975Y-106158884D01*
X164518036Y-106174500D01*
X164657173Y-106219709D01*
X164851578Y-106250500D01*
X164851583Y-106250500D01*
X166548422Y-106250500D01*
X166742826Y-106219709D01*
X166930025Y-106158884D01*
X167105405Y-106069524D01*
X167264646Y-105953828D01*
X167403828Y-105814646D01*
X167519524Y-105655405D01*
X167608884Y-105480025D01*
X167669709Y-105292826D01*
X167675005Y-105259390D01*
X167700500Y-105098422D01*
X167700500Y-104901577D01*
X167669709Y-104707173D01*
X167608882Y-104519970D01*
X167549390Y-104403211D01*
X167519524Y-104344595D01*
X167403828Y-104185354D01*
X167264646Y-104046172D01*
X167105405Y-103930476D01*
X167102198Y-103928842D01*
X166930029Y-103841117D01*
X166742826Y-103780290D01*
X166548422Y-103749500D01*
X166548417Y-103749500D01*
X164851583Y-103749500D01*
X164851578Y-103749500D01*
X164657173Y-103780290D01*
X164469970Y-103841117D01*
X164294594Y-103930476D01*
X164221504Y-103983580D01*
X164135354Y-104046172D01*
X164135352Y-104046174D01*
X164135351Y-104046174D01*
X163996174Y-104185351D01*
X163996174Y-104185352D01*
X163996172Y-104185354D01*
X163950477Y-104248248D01*
X163880476Y-104344594D01*
X163791117Y-104519970D01*
X163730290Y-104707173D01*
X163699500Y-104901577D01*
X161896633Y-104901577D01*
X161874738Y-104791508D01*
X161874737Y-104791507D01*
X161874737Y-104791503D01*
X161874592Y-104791153D01*
X161814397Y-104645827D01*
X161814390Y-104645814D01*
X161726789Y-104514711D01*
X161726786Y-104514707D01*
X161615292Y-104403213D01*
X161615288Y-104403210D01*
X161484185Y-104315609D01*
X161484172Y-104315602D01*
X161338501Y-104255264D01*
X161338489Y-104255261D01*
X161183845Y-104224500D01*
X161183842Y-104224500D01*
X161026158Y-104224500D01*
X161026155Y-104224500D01*
X160871510Y-104255261D01*
X160871498Y-104255264D01*
X160725827Y-104315602D01*
X160725814Y-104315609D01*
X160594125Y-104403602D01*
X160527447Y-104424480D01*
X160525234Y-104424500D01*
X158600097Y-104424500D01*
X158533058Y-104404815D01*
X158512416Y-104388181D01*
X155440838Y-101316603D01*
X155407353Y-101255280D01*
X155412337Y-101185588D01*
X155440838Y-101141241D01*
X155549164Y-101032914D01*
X155549167Y-101032911D01*
X155636772Y-100901801D01*
X155697115Y-100756119D01*
X155727878Y-100601464D01*
X155727878Y-100443780D01*
X155727878Y-100443777D01*
X155727877Y-100443775D01*
X155698447Y-100295821D01*
X155697115Y-100289125D01*
X155689533Y-100270821D01*
X155636775Y-100143449D01*
X155636768Y-100143436D01*
X155548776Y-100011747D01*
X155527898Y-99945069D01*
X155527878Y-99942856D01*
X155527878Y-99501475D01*
X155547563Y-99434436D01*
X155600367Y-99388681D01*
X155669525Y-99378737D01*
X155733081Y-99407762D01*
X155739559Y-99413794D01*
X156990425Y-100664660D01*
X157023910Y-100725983D01*
X157024361Y-100728149D01*
X157055261Y-100883491D01*
X157055264Y-100883501D01*
X157115602Y-101029172D01*
X157115609Y-101029185D01*
X157203210Y-101160288D01*
X157203213Y-101160292D01*
X157314707Y-101271786D01*
X157314711Y-101271789D01*
X157445814Y-101359390D01*
X157445827Y-101359397D01*
X157591498Y-101419735D01*
X157591503Y-101419737D01*
X157746153Y-101450499D01*
X157746156Y-101450500D01*
X157746158Y-101450500D01*
X157903844Y-101450500D01*
X157903845Y-101450499D01*
X158058497Y-101419737D01*
X158204179Y-101359394D01*
X158335289Y-101271789D01*
X158446789Y-101160289D01*
X158534394Y-101029179D01*
X158594737Y-100883497D01*
X158625500Y-100728842D01*
X158625500Y-100571158D01*
X158625500Y-100571155D01*
X158625499Y-100571153D01*
X158624439Y-100565826D01*
X158594737Y-100416503D01*
X158544752Y-100295827D01*
X158534397Y-100270827D01*
X158534390Y-100270814D01*
X158532195Y-100267529D01*
X158446789Y-100139711D01*
X158446786Y-100139707D01*
X158344759Y-100037680D01*
X158311274Y-99976357D01*
X158316258Y-99906665D01*
X158344760Y-99862317D01*
X158371789Y-99835289D01*
X158459394Y-99704179D01*
X158519737Y-99558497D01*
X158550500Y-99403842D01*
X158550500Y-99385305D01*
X172250000Y-99385305D01*
X172250000Y-99750000D01*
X173500000Y-99750000D01*
X173500000Y-100250000D01*
X172250000Y-100250000D01*
X172250000Y-100614694D01*
X172250001Y-100614710D01*
X172279942Y-100842137D01*
X172339318Y-101063730D01*
X172427099Y-101275653D01*
X172427106Y-101275668D01*
X172541809Y-101474338D01*
X172681455Y-101656329D01*
X172681461Y-101656336D01*
X172843663Y-101818538D01*
X172843670Y-101818544D01*
X173025661Y-101958190D01*
X173224331Y-102072893D01*
X173224340Y-102072897D01*
X173436269Y-102160681D01*
X173657859Y-102220056D01*
X173657864Y-102220057D01*
X173749999Y-102232186D01*
X173750000Y-102232186D01*
X173750000Y-100933012D01*
X173807007Y-100965925D01*
X173934174Y-101000000D01*
X174065826Y-101000000D01*
X174192993Y-100965925D01*
X174250000Y-100933012D01*
X174250000Y-102232186D01*
X174342135Y-102220057D01*
X174342140Y-102220056D01*
X174563730Y-102160681D01*
X174775659Y-102072897D01*
X174775668Y-102072893D01*
X174974338Y-101958190D01*
X175156329Y-101818544D01*
X175156336Y-101818538D01*
X175318538Y-101656336D01*
X175318544Y-101656329D01*
X175458190Y-101474338D01*
X175572893Y-101275668D01*
X175572901Y-101275653D01*
X175660681Y-101063730D01*
X175720057Y-100842137D01*
X175749998Y-100614710D01*
X175750000Y-100614694D01*
X175750000Y-100250000D01*
X174500000Y-100250000D01*
X174500000Y-99750000D01*
X175750000Y-99750000D01*
X175750000Y-99385305D01*
X175749998Y-99385289D01*
X175720057Y-99157862D01*
X175660681Y-98936269D01*
X175572897Y-98724340D01*
X175572893Y-98724331D01*
X175458190Y-98525661D01*
X175318544Y-98343670D01*
X175318538Y-98343663D01*
X175156336Y-98181461D01*
X175156329Y-98181455D01*
X174974338Y-98041809D01*
X174775668Y-97927106D01*
X174775659Y-97927102D01*
X174563730Y-97839318D01*
X174342137Y-97779942D01*
X174250000Y-97767811D01*
X174250000Y-99066988D01*
X174192993Y-99034075D01*
X174065826Y-99000000D01*
X173934174Y-99000000D01*
X173807007Y-99034075D01*
X173750000Y-99066988D01*
X173750000Y-97767811D01*
X173749999Y-97767811D01*
X173657862Y-97779942D01*
X173436269Y-97839318D01*
X173224340Y-97927102D01*
X173224331Y-97927106D01*
X173025661Y-98041809D01*
X172843670Y-98181455D01*
X172843663Y-98181461D01*
X172681461Y-98343663D01*
X172681455Y-98343670D01*
X172541809Y-98525661D01*
X172427106Y-98724331D01*
X172427102Y-98724340D01*
X172339318Y-98936269D01*
X172279942Y-99157862D01*
X172250001Y-99385289D01*
X172250000Y-99385305D01*
X158550500Y-99385305D01*
X158550500Y-99246158D01*
X158550500Y-99246155D01*
X158550499Y-99246153D01*
X158539925Y-99192993D01*
X158519737Y-99091503D01*
X158519735Y-99091498D01*
X158459397Y-98945827D01*
X158459390Y-98945814D01*
X158371789Y-98814711D01*
X158371786Y-98814707D01*
X158260292Y-98703213D01*
X158260288Y-98703210D01*
X158129185Y-98615609D01*
X158129172Y-98615602D01*
X157983501Y-98555264D01*
X157983491Y-98555261D01*
X157828149Y-98524361D01*
X157766238Y-98491976D01*
X157764660Y-98490425D01*
X155696819Y-96422584D01*
X155663334Y-96361261D01*
X155660500Y-96334903D01*
X155660500Y-95610718D01*
X155680185Y-95543679D01*
X155728207Y-95500233D01*
X155767815Y-95480052D01*
X155767815Y-95480051D01*
X155767816Y-95480051D01*
X155939792Y-95355104D01*
X156053329Y-95241566D01*
X156114648Y-95208084D01*
X156184340Y-95213068D01*
X156240274Y-95254939D01*
X156257189Y-95285917D01*
X156306202Y-95417328D01*
X156306206Y-95417335D01*
X156392452Y-95532544D01*
X156392455Y-95532547D01*
X156507664Y-95618793D01*
X156507671Y-95618797D01*
X156642517Y-95669091D01*
X156642516Y-95669091D01*
X156649444Y-95669835D01*
X156702127Y-95675500D01*
X158099902Y-95675499D01*
X158166941Y-95695184D01*
X158187583Y-95711818D01*
X160002092Y-97526327D01*
X160035577Y-97587650D01*
X160036028Y-97638199D01*
X160024500Y-97696153D01*
X160024500Y-97853846D01*
X160055261Y-98008489D01*
X160055264Y-98008501D01*
X160115602Y-98154172D01*
X160115609Y-98154185D01*
X160203210Y-98285288D01*
X160203213Y-98285292D01*
X160314707Y-98396786D01*
X160314711Y-98396789D01*
X160445814Y-98484390D01*
X160445827Y-98484397D01*
X160542646Y-98524500D01*
X160591503Y-98544737D01*
X160746153Y-98575499D01*
X160746156Y-98575500D01*
X160746158Y-98575500D01*
X160903844Y-98575500D01*
X160903845Y-98575499D01*
X161058497Y-98544737D01*
X161204179Y-98484394D01*
X161335289Y-98396789D01*
X161446789Y-98285289D01*
X161534394Y-98154179D01*
X161536833Y-98148292D01*
X161559323Y-98093995D01*
X161594737Y-98008497D01*
X161625500Y-97853842D01*
X161625500Y-97696158D01*
X161625500Y-97696155D01*
X161625499Y-97696153D01*
X161603916Y-97587650D01*
X161594737Y-97541503D01*
X161588451Y-97526327D01*
X161534397Y-97395827D01*
X161534390Y-97395814D01*
X161446789Y-97264711D01*
X161446786Y-97264707D01*
X161335289Y-97153210D01*
X161321811Y-97144205D01*
X161303022Y-97128785D01*
X161246198Y-97071962D01*
X161193716Y-97019480D01*
X161193713Y-97019478D01*
X159559493Y-95385258D01*
X168249500Y-95385258D01*
X168249500Y-95614741D01*
X168267193Y-95749124D01*
X168279452Y-95842238D01*
X168332687Y-96040916D01*
X168338842Y-96063887D01*
X168426650Y-96275876D01*
X168426657Y-96275890D01*
X168541392Y-96474617D01*
X168681081Y-96656661D01*
X168681089Y-96656670D01*
X168843330Y-96818911D01*
X168843338Y-96818918D01*
X169025382Y-96958607D01*
X169025385Y-96958608D01*
X169025388Y-96958611D01*
X169224112Y-97073344D01*
X169224117Y-97073346D01*
X169224123Y-97073349D01*
X169315480Y-97111190D01*
X169436113Y-97161158D01*
X169657762Y-97220548D01*
X169885266Y-97250500D01*
X169885273Y-97250500D01*
X171114727Y-97250500D01*
X171114734Y-97250500D01*
X171342238Y-97220548D01*
X171563887Y-97161158D01*
X171775888Y-97073344D01*
X171974612Y-96958611D01*
X172156661Y-96818919D01*
X172156665Y-96818914D01*
X172156670Y-96818911D01*
X172318911Y-96656670D01*
X172318914Y-96656665D01*
X172318919Y-96656661D01*
X172458611Y-96474612D01*
X172573344Y-96275888D01*
X172661158Y-96063887D01*
X172720548Y-95842238D01*
X172750500Y-95614734D01*
X172750500Y-95385266D01*
X172720548Y-95157762D01*
X172661158Y-94936113D01*
X172584589Y-94751260D01*
X172573349Y-94724123D01*
X172573346Y-94724117D01*
X172573344Y-94724112D01*
X172458611Y-94525388D01*
X172458608Y-94525385D01*
X172458607Y-94525382D01*
X172336608Y-94366392D01*
X172318919Y-94343339D01*
X172318918Y-94343338D01*
X172318911Y-94343330D01*
X172156670Y-94181089D01*
X172156661Y-94181081D01*
X171974617Y-94041392D01*
X171918091Y-94008757D01*
X171843845Y-93965891D01*
X171775890Y-93926657D01*
X171775876Y-93926650D01*
X171563887Y-93838842D01*
X171546219Y-93834108D01*
X171342238Y-93779452D01*
X171304215Y-93774446D01*
X171114741Y-93749500D01*
X171114734Y-93749500D01*
X169885266Y-93749500D01*
X169885258Y-93749500D01*
X169668715Y-93778009D01*
X169657762Y-93779452D01*
X169564076Y-93804554D01*
X169436112Y-93838842D01*
X169224123Y-93926650D01*
X169224109Y-93926657D01*
X169025382Y-94041392D01*
X168843338Y-94181081D01*
X168681081Y-94343338D01*
X168541392Y-94525382D01*
X168426657Y-94724109D01*
X168426650Y-94724123D01*
X168338842Y-94936112D01*
X168279453Y-95157759D01*
X168279451Y-95157770D01*
X168249500Y-95385258D01*
X159559493Y-95385258D01*
X158986818Y-94812583D01*
X158953333Y-94751260D01*
X158950499Y-94724902D01*
X158950499Y-93427129D01*
X158950498Y-93427123D01*
X158950381Y-93426039D01*
X158944091Y-93367517D01*
X158893796Y-93232669D01*
X158872093Y-93203678D01*
X158868450Y-93198811D01*
X158844033Y-93133346D01*
X158858885Y-93065074D01*
X158908290Y-93015668D01*
X158967717Y-93000500D01*
X179241324Y-93000500D01*
X179270764Y-93009144D01*
X179300751Y-93015668D01*
X179305766Y-93019422D01*
X179308363Y-93020185D01*
X179329005Y-93036819D01*
X179463181Y-93170995D01*
X179496666Y-93232318D01*
X179499500Y-93258676D01*
X179499500Y-106741324D01*
X179479815Y-106808363D01*
X179463181Y-106829005D01*
X179329005Y-106963181D01*
X179267682Y-106996666D01*
X179241324Y-106999500D01*
X153557703Y-106999500D01*
X153490664Y-106979815D01*
X153444909Y-106927011D01*
X153434965Y-106857853D01*
X153436086Y-106851309D01*
X153450499Y-106778846D01*
X153450500Y-106778844D01*
X153450500Y-106621155D01*
X153450499Y-106621153D01*
X153426396Y-106499982D01*
X153419737Y-106466503D01*
X153392398Y-106400500D01*
X153359397Y-106320827D01*
X153359390Y-106320814D01*
X153271789Y-106189711D01*
X153271786Y-106189707D01*
X153160292Y-106078213D01*
X153160288Y-106078210D01*
X153029185Y-105990609D01*
X153029172Y-105990602D01*
X152883501Y-105930264D01*
X152883489Y-105930261D01*
X152728845Y-105899500D01*
X152728842Y-105899500D01*
X152571158Y-105899500D01*
X152571155Y-105899500D01*
X152416510Y-105930261D01*
X152416498Y-105930264D01*
X152270827Y-105990602D01*
X152270814Y-105990609D01*
X152139711Y-106078210D01*
X152139707Y-106078213D01*
X152028210Y-106189710D01*
X151992343Y-106243391D01*
X151938731Y-106288196D01*
X151889241Y-106298500D01*
X151583724Y-106298500D01*
X151516685Y-106278815D01*
X151470930Y-106226011D01*
X151460986Y-106156853D01*
X151490011Y-106093297D01*
X151514833Y-106071398D01*
X151528793Y-106062070D01*
X151540420Y-106054301D01*
X151644301Y-105950420D01*
X151725920Y-105828269D01*
X151782140Y-105692542D01*
X151810800Y-105548455D01*
X151810800Y-105401545D01*
X151782140Y-105257458D01*
X151725920Y-105121731D01*
X151725919Y-105121730D01*
X151725916Y-105121724D01*
X151644301Y-104999580D01*
X151644298Y-104999576D01*
X151540423Y-104895701D01*
X151540419Y-104895698D01*
X151418275Y-104814083D01*
X151418266Y-104814078D01*
X151282544Y-104757861D01*
X151282545Y-104757861D01*
X151282542Y-104757860D01*
X151282538Y-104757859D01*
X151282534Y-104757858D01*
X151138459Y-104729200D01*
X151138455Y-104729200D01*
X150991545Y-104729200D01*
X150991540Y-104729200D01*
X150847465Y-104757858D01*
X150847455Y-104757861D01*
X150711733Y-104814078D01*
X150711724Y-104814083D01*
X150589580Y-104895698D01*
X150589576Y-104895701D01*
X150485701Y-104999576D01*
X150485698Y-104999580D01*
X150404083Y-105121724D01*
X150404078Y-105121733D01*
X150347861Y-105257455D01*
X150347858Y-105257465D01*
X150319200Y-105401540D01*
X150319200Y-105548459D01*
X150347858Y-105692534D01*
X150347861Y-105692544D01*
X150404078Y-105828266D01*
X150404083Y-105828275D01*
X150485698Y-105950419D01*
X150485701Y-105950423D01*
X150589576Y-106054298D01*
X150589580Y-106054301D01*
X150615167Y-106071398D01*
X150659972Y-106125010D01*
X150668679Y-106194335D01*
X150638525Y-106257362D01*
X150579082Y-106294082D01*
X150546276Y-106298500D01*
X147724500Y-106298500D01*
X147657461Y-106278815D01*
X147611706Y-106226011D01*
X147600500Y-106174500D01*
X147600500Y-104742784D01*
X147620185Y-104675745D01*
X147672989Y-104629990D01*
X147742147Y-104620046D01*
X147748692Y-104621167D01*
X147896155Y-104650500D01*
X147896158Y-104650500D01*
X148053844Y-104650500D01*
X148053845Y-104650499D01*
X148208497Y-104619737D01*
X148354179Y-104559394D01*
X148485289Y-104471789D01*
X148596789Y-104360289D01*
X148684394Y-104229179D01*
X148744737Y-104083497D01*
X148775500Y-103928842D01*
X148775500Y-103771158D01*
X148775500Y-103771155D01*
X148775499Y-103771153D01*
X148763721Y-103711941D01*
X148744737Y-103616503D01*
X148691338Y-103487585D01*
X148684397Y-103470827D01*
X148684390Y-103470814D01*
X148596789Y-103339711D01*
X148596786Y-103339707D01*
X148485292Y-103228213D01*
X148485288Y-103228210D01*
X148354185Y-103140609D01*
X148354172Y-103140602D01*
X148208501Y-103080264D01*
X148208489Y-103080261D01*
X148053845Y-103049500D01*
X148053842Y-103049500D01*
X147896158Y-103049500D01*
X147896155Y-103049500D01*
X147741510Y-103080261D01*
X147741498Y-103080264D01*
X147595827Y-103140602D01*
X147595814Y-103140609D01*
X147464125Y-103228602D01*
X147397447Y-103249480D01*
X147395234Y-103249500D01*
X146920943Y-103249500D01*
X146768216Y-103290423D01*
X146768209Y-103290426D01*
X146631290Y-103369475D01*
X146631282Y-103369481D01*
X146519481Y-103481282D01*
X146519475Y-103481290D01*
X146440426Y-103618209D01*
X146440423Y-103618214D01*
X146423434Y-103681621D01*
X146387069Y-103741281D01*
X146324221Y-103771810D01*
X146256207Y-103764088D01*
X146202548Y-103741862D01*
X146202544Y-103741860D01*
X146202542Y-103741860D01*
X146202538Y-103741859D01*
X146202534Y-103741858D01*
X146058459Y-103713200D01*
X146058455Y-103713200D01*
X145911545Y-103713200D01*
X145911540Y-103713200D01*
X145767465Y-103741858D01*
X145767455Y-103741861D01*
X145631733Y-103798078D01*
X145631724Y-103798083D01*
X145509580Y-103879698D01*
X145509576Y-103879701D01*
X145405701Y-103983576D01*
X145405698Y-103983580D01*
X145324083Y-104105724D01*
X145324078Y-104105733D01*
X145267861Y-104241455D01*
X145267858Y-104241465D01*
X145239200Y-104385540D01*
X145239200Y-104532459D01*
X145267858Y-104676534D01*
X145267861Y-104676544D01*
X145324078Y-104812266D01*
X145324083Y-104812275D01*
X145405698Y-104934419D01*
X145405701Y-104934423D01*
X145509576Y-105038298D01*
X145509580Y-105038301D01*
X145631724Y-105119916D01*
X145631730Y-105119919D01*
X145631731Y-105119920D01*
X145767458Y-105176140D01*
X145911540Y-105204799D01*
X145911544Y-105204800D01*
X145911545Y-105204800D01*
X146058456Y-105204800D01*
X146058457Y-105204799D01*
X146202542Y-105176140D01*
X146228048Y-105165574D01*
X146297516Y-105158106D01*
X146359995Y-105189380D01*
X146395648Y-105249469D01*
X146399500Y-105280136D01*
X146399500Y-105669863D01*
X146379815Y-105736902D01*
X146327011Y-105782657D01*
X146257853Y-105792601D01*
X146228049Y-105784425D01*
X146202544Y-105773861D01*
X146202545Y-105773861D01*
X146202542Y-105773860D01*
X146202538Y-105773859D01*
X146202534Y-105773858D01*
X146058459Y-105745200D01*
X146058455Y-105745200D01*
X145911545Y-105745200D01*
X145911540Y-105745200D01*
X145767465Y-105773858D01*
X145767455Y-105773861D01*
X145631733Y-105830078D01*
X145631719Y-105830086D01*
X145590789Y-105857435D01*
X145578804Y-105861187D01*
X145568999Y-105869040D01*
X145546089Y-105871431D01*
X145524112Y-105878313D01*
X145511999Y-105874989D01*
X145499507Y-105876294D01*
X145478943Y-105865921D01*
X145456732Y-105859828D01*
X145446842Y-105849728D01*
X145437124Y-105844827D01*
X145416948Y-105819203D01*
X145415063Y-105817278D01*
X145414553Y-105816413D01*
X145402834Y-105795752D01*
X145401705Y-105794606D01*
X145400774Y-105793025D01*
X145400572Y-105792758D01*
X145355608Y-105747794D01*
X145354941Y-105747122D01*
X145310364Y-105701859D01*
X145308517Y-105700419D01*
X145308516Y-105700418D01*
X145307411Y-105699556D01*
X145295249Y-105692534D01*
X145252317Y-105667747D01*
X145251525Y-105667286D01*
X145196739Y-105635095D01*
X145194546Y-105634167D01*
X145194545Y-105634166D01*
X145193290Y-105633635D01*
X145131821Y-105617163D01*
X145131821Y-105617164D01*
X145131284Y-105617020D01*
X145069711Y-105600018D01*
X145067773Y-105600003D01*
X145065896Y-105599500D01*
X145065892Y-105599500D01*
X145002276Y-105599500D01*
X145001329Y-105599496D01*
X132523553Y-105504245D01*
X132456666Y-105484050D01*
X132411316Y-105430898D01*
X132400500Y-105380249D01*
X132400500Y-94524500D01*
X132420185Y-94457461D01*
X132472989Y-94411706D01*
X132524500Y-94400500D01*
X145065890Y-94400500D01*
X145065892Y-94400500D01*
X145193186Y-94366392D01*
X145307314Y-94300500D01*
X145400500Y-94207314D01*
X145466392Y-94093186D01*
X145500500Y-93965892D01*
X145500500Y-93124500D01*
X145520185Y-93057461D01*
X145572989Y-93011706D01*
X145624500Y-93000500D01*
X149123777Y-93000500D01*
X149190816Y-93020185D01*
G37*
%TD.AperFunction*%
%TD*%
M02*
