M48
; DRILL file {KiCad 9.0.6} date 2025-12-12T23:19:39-0800
; FORMAT={-:-/ absolute / metric / decimal}
; #@! TF.CreationDate,2025-12-12T23:19:39-08:00
; #@! TF.GenerationSoftware,Kicad,Pcbnew,9.0.6
; #@! TF.FileFunction,Plated,1,2,PTH
FMAT,2
METRIC
; #@! TA.AperFunction,Plated,PTH,ViaDrill
T1C0.300
; #@! TA.AperFunction,Plated,PTH,ComponentDrill
T2C1.000
%
G90
G05
T1
X144.3Y-96.275
X144.3Y-98.35
X146.45Y-102.375
X147.975Y-103.85
X150.325Y-98.85
X150.6Y-97.425
X151.65Y-103.675
X152.1Y-96.65
X152.65Y-106.7
X153.025Y-104.87
X153.95Y-100.675
X154.375Y-98.5
X154.552Y-102.098
X154.65Y-104.55
X154.927Y-100.523
X156.975Y-106.183
X157.75Y-99.325
X157.825Y-100.65
X158.0Y-98.1
X160.825Y-97.775
X161.105Y-105.025
T2
X149.98Y-94.325
X152.52Y-94.325
X155.06Y-94.325
X157.6Y-94.325
T2
X162.9Y-95.3G85X162.9Y-96.3
G05
X166.2Y-105.0G85X165.2Y-105.0
G05
X167.9Y-102.5G85X166.9Y-102.5
G05
X171.0Y-95.5G85X170.0Y-95.5
G05
X174.0Y-100.5G85X174.0Y-99.5
G05
M30
