%TF.GenerationSoftware,KiCad,Pcbnew,9.0.6*%
%TF.CreationDate,2025-12-12T23:19:39-08:00*%
%TF.ProjectId,iambic-controller-board,69616d62-6963-42d6-936f-6e74726f6c6c,1.0*%
%TF.SameCoordinates,Original*%
%TF.FileFunction,Drillmap*%
%TF.FilePolarity,Positive*%
%FSLAX45Y45*%
G04 Gerber Fmt 4.5, Leading zero omitted, Abs format (unit mm)*
G04 Created by KiCad (PCBNEW 9.0.6) date 2025-12-12 23:19:39*
%MOMM*%
%LPD*%
G01*
G04 APERTURE LIST*
%ADD10C,0.050000*%
%ADD11C,0.200000*%
%ADD12C,0.100000*%
G04 APERTURE END LIST*
D10*
X13190000Y-9390000D02*
X14500000Y-9390000D01*
X18000000Y-10700000D02*
X17950000Y-10750000D01*
X17950000Y-9250000D02*
X18000000Y-9300000D01*
X14500000Y-9250000D02*
X17950000Y-9250000D01*
X18000000Y-9300000D02*
X18000000Y-10700000D01*
X14500000Y-10750000D02*
X17950000Y-10750000D01*
X13190000Y-9390000D02*
X13190000Y-10600000D01*
X14500000Y-10610000D02*
X13190000Y-10600000D01*
X14500000Y-10750000D02*
X14500000Y-10610000D01*
X14500000Y-9390000D02*
X14500000Y-9250000D01*
D11*
D12*
X14415000Y-9612500D02*
X14445000Y-9642500D01*
X14445000Y-9612500D02*
X14415000Y-9642500D01*
X14415000Y-9820000D02*
X14445000Y-9850000D01*
X14445000Y-9820000D02*
X14415000Y-9850000D01*
X14630000Y-10222500D02*
X14660000Y-10252500D01*
X14660000Y-10222500D02*
X14630000Y-10252500D01*
X14782500Y-10370000D02*
X14812500Y-10400000D01*
X14812500Y-10370000D02*
X14782500Y-10400000D01*
X15017500Y-9870000D02*
X15047500Y-9900000D01*
X15047500Y-9870000D02*
X15017500Y-9900000D01*
X15045000Y-9727500D02*
X15075000Y-9757500D01*
X15075000Y-9727500D02*
X15045000Y-9757500D01*
X15150000Y-10352500D02*
X15180000Y-10382500D01*
X15180000Y-10352500D02*
X15150000Y-10382500D01*
X15195000Y-9650000D02*
X15225000Y-9680000D01*
X15225000Y-9650000D02*
X15195000Y-9680000D01*
X15250000Y-10655000D02*
X15280000Y-10685000D01*
X15280000Y-10655000D02*
X15250000Y-10685000D01*
X15287500Y-10472000D02*
X15317500Y-10502000D01*
X15317500Y-10472000D02*
X15287500Y-10502000D01*
X15380000Y-10052500D02*
X15410000Y-10082500D01*
X15410000Y-10052500D02*
X15380000Y-10082500D01*
X15422500Y-9835000D02*
X15452500Y-9865000D01*
X15452500Y-9835000D02*
X15422500Y-9865000D01*
X15440238Y-10194762D02*
X15470238Y-10224762D01*
X15470238Y-10194762D02*
X15440238Y-10224762D01*
X15450000Y-10440000D02*
X15480000Y-10470000D01*
X15480000Y-10440000D02*
X15450000Y-10470000D01*
X15477738Y-10037262D02*
X15507738Y-10067262D01*
X15507738Y-10037262D02*
X15477738Y-10067262D01*
X15682500Y-10603350D02*
X15712500Y-10633350D01*
X15712500Y-10603350D02*
X15682500Y-10633350D01*
X15760000Y-9917500D02*
X15790000Y-9947500D01*
X15790000Y-9917500D02*
X15760000Y-9947500D01*
X15767500Y-10050000D02*
X15797500Y-10080000D01*
X15797500Y-10050000D02*
X15767500Y-10080000D01*
X15785000Y-9795000D02*
X15815000Y-9825000D01*
X15815000Y-9795000D02*
X15785000Y-9825000D01*
X16067500Y-9762500D02*
X16097500Y-9792500D01*
X16097500Y-9762500D02*
X16067500Y-9792500D01*
X16095500Y-10487500D02*
X16125500Y-10517500D01*
X16125500Y-10487500D02*
X16095500Y-10517500D01*
X15048000Y-9432500D02*
G75*
G02*
X14948000Y-9432500I-50000J0D01*
G01*
X14948000Y-9432500D02*
G75*
G02*
X15048000Y-9432500I50000J0D01*
G01*
X15302000Y-9432500D02*
G75*
G02*
X15202000Y-9432500I-50000J0D01*
G01*
X15202000Y-9432500D02*
G75*
G02*
X15302000Y-9432500I50000J0D01*
G01*
X15556000Y-9432500D02*
G75*
G02*
X15456000Y-9432500I-50000J0D01*
G01*
X15456000Y-9432500D02*
G75*
G02*
X15556000Y-9432500I50000J0D01*
G01*
X15810000Y-9432500D02*
G75*
G02*
X15710000Y-9432500I-50000J0D01*
G01*
X15710000Y-9432500D02*
G75*
G02*
X15810000Y-9432500I50000J0D01*
G01*
X16340000Y-9580000D02*
G75*
G02*
X16240000Y-9580000I-50000J0D01*
G01*
X16240000Y-9580000D02*
G75*
G02*
X16340000Y-9580000I50000J0D01*
G01*
X16240000Y-9530000D02*
X16240000Y-9630000D01*
X16340000Y-9630000D02*
G75*
G02*
X16240000Y-9630000I-50000J0D01*
G01*
X16340000Y-9630000D02*
X16340000Y-9530000D01*
X16340000Y-9530000D02*
G75*
G03*
X16240000Y-9530000I-50000J0D01*
G01*
X16620000Y-10500000D02*
G75*
G02*
X16520000Y-10500000I-50000J0D01*
G01*
X16520000Y-10500000D02*
G75*
G02*
X16620000Y-10500000I50000J0D01*
G01*
X16620000Y-10450000D02*
X16520000Y-10450000D01*
X16520000Y-10550000D02*
G75*
G02*
X16520000Y-10450000I0J50000D01*
G01*
X16520000Y-10550000D02*
X16620000Y-10550000D01*
X16620000Y-10550000D02*
G75*
G03*
X16620000Y-10450000I0J50000D01*
G01*
X16790000Y-10250000D02*
G75*
G02*
X16690000Y-10250000I-50000J0D01*
G01*
X16690000Y-10250000D02*
G75*
G02*
X16790000Y-10250000I50000J0D01*
G01*
X16790000Y-10200000D02*
X16690000Y-10200000D01*
X16690000Y-10300000D02*
G75*
G02*
X16690000Y-10200000I0J50000D01*
G01*
X16690000Y-10300000D02*
X16790000Y-10300000D01*
X16790000Y-10300000D02*
G75*
G03*
X16790000Y-10200000I0J50000D01*
G01*
X17100000Y-9550000D02*
G75*
G02*
X17000000Y-9550000I-50000J0D01*
G01*
X17000000Y-9550000D02*
G75*
G02*
X17100000Y-9550000I50000J0D01*
G01*
X17100000Y-9500000D02*
X17000000Y-9500000D01*
X17000000Y-9600000D02*
G75*
G02*
X17000000Y-9500000I0J50000D01*
G01*
X17000000Y-9600000D02*
X17100000Y-9600000D01*
X17100000Y-9600000D02*
G75*
G03*
X17100000Y-9500000I0J50000D01*
G01*
X17450000Y-10000000D02*
G75*
G02*
X17350000Y-10000000I-50000J0D01*
G01*
X17350000Y-10000000D02*
G75*
G02*
X17450000Y-10000000I50000J0D01*
G01*
X17450000Y-10050000D02*
X17450000Y-9950000D01*
X17350000Y-9950000D02*
G75*
G02*
X17450000Y-9950000I50000J0D01*
G01*
X17350000Y-9950000D02*
X17350000Y-10050000D01*
X17350000Y-10050000D02*
G75*
G03*
X17450000Y-10050000I50000J0D01*
G01*
D11*
X13448277Y-11063984D02*
X13448277Y-10863984D01*
X13448277Y-10863984D02*
X13495896Y-10863984D01*
X13495896Y-10863984D02*
X13524467Y-10873508D01*
X13524467Y-10873508D02*
X13543515Y-10892555D01*
X13543515Y-10892555D02*
X13553039Y-10911603D01*
X13553039Y-10911603D02*
X13562562Y-10949698D01*
X13562562Y-10949698D02*
X13562562Y-10978270D01*
X13562562Y-10978270D02*
X13553039Y-11016365D01*
X13553039Y-11016365D02*
X13543515Y-11035412D01*
X13543515Y-11035412D02*
X13524467Y-11054460D01*
X13524467Y-11054460D02*
X13495896Y-11063984D01*
X13495896Y-11063984D02*
X13448277Y-11063984D01*
X13648277Y-11063984D02*
X13648277Y-10930650D01*
X13648277Y-10968746D02*
X13657801Y-10949698D01*
X13657801Y-10949698D02*
X13667324Y-10940174D01*
X13667324Y-10940174D02*
X13686372Y-10930650D01*
X13686372Y-10930650D02*
X13705420Y-10930650D01*
X13772086Y-11063984D02*
X13772086Y-10930650D01*
X13772086Y-10863984D02*
X13762562Y-10873508D01*
X13762562Y-10873508D02*
X13772086Y-10883031D01*
X13772086Y-10883031D02*
X13781610Y-10873508D01*
X13781610Y-10873508D02*
X13772086Y-10863984D01*
X13772086Y-10863984D02*
X13772086Y-10883031D01*
X13895896Y-11063984D02*
X13876848Y-11054460D01*
X13876848Y-11054460D02*
X13867324Y-11035412D01*
X13867324Y-11035412D02*
X13867324Y-10863984D01*
X14000658Y-11063984D02*
X13981610Y-11054460D01*
X13981610Y-11054460D02*
X13972086Y-11035412D01*
X13972086Y-11035412D02*
X13972086Y-10863984D01*
X14229229Y-11063984D02*
X14229229Y-10863984D01*
X14229229Y-10863984D02*
X14295896Y-11006841D01*
X14295896Y-11006841D02*
X14362562Y-10863984D01*
X14362562Y-10863984D02*
X14362562Y-11063984D01*
X14543515Y-11063984D02*
X14543515Y-10959222D01*
X14543515Y-10959222D02*
X14533991Y-10940174D01*
X14533991Y-10940174D02*
X14514943Y-10930650D01*
X14514943Y-10930650D02*
X14476848Y-10930650D01*
X14476848Y-10930650D02*
X14457801Y-10940174D01*
X14543515Y-11054460D02*
X14524467Y-11063984D01*
X14524467Y-11063984D02*
X14476848Y-11063984D01*
X14476848Y-11063984D02*
X14457801Y-11054460D01*
X14457801Y-11054460D02*
X14448277Y-11035412D01*
X14448277Y-11035412D02*
X14448277Y-11016365D01*
X14448277Y-11016365D02*
X14457801Y-10997317D01*
X14457801Y-10997317D02*
X14476848Y-10987793D01*
X14476848Y-10987793D02*
X14524467Y-10987793D01*
X14524467Y-10987793D02*
X14543515Y-10978270D01*
X14638753Y-10930650D02*
X14638753Y-11130650D01*
X14638753Y-10940174D02*
X14657801Y-10930650D01*
X14657801Y-10930650D02*
X14695896Y-10930650D01*
X14695896Y-10930650D02*
X14714943Y-10940174D01*
X14714943Y-10940174D02*
X14724467Y-10949698D01*
X14724467Y-10949698D02*
X14733991Y-10968746D01*
X14733991Y-10968746D02*
X14733991Y-11025889D01*
X14733991Y-11025889D02*
X14724467Y-11044936D01*
X14724467Y-11044936D02*
X14714943Y-11054460D01*
X14714943Y-11054460D02*
X14695896Y-11063984D01*
X14695896Y-11063984D02*
X14657801Y-11063984D01*
X14657801Y-11063984D02*
X14638753Y-11054460D01*
X14819705Y-11044936D02*
X14829229Y-11054460D01*
X14829229Y-11054460D02*
X14819705Y-11063984D01*
X14819705Y-11063984D02*
X14810182Y-11054460D01*
X14810182Y-11054460D02*
X14819705Y-11044936D01*
X14819705Y-11044936D02*
X14819705Y-11063984D01*
X14819705Y-10940174D02*
X14829229Y-10949698D01*
X14829229Y-10949698D02*
X14819705Y-10959222D01*
X14819705Y-10959222D02*
X14810182Y-10949698D01*
X14810182Y-10949698D02*
X14819705Y-10940174D01*
X14819705Y-10940174D02*
X14819705Y-10959222D01*
D12*
X13157500Y-11377500D02*
X13187500Y-11407500D01*
X13187500Y-11377500D02*
X13157500Y-11407500D01*
D11*
X13486372Y-11283984D02*
X13505420Y-11283984D01*
X13505420Y-11283984D02*
X13524467Y-11293508D01*
X13524467Y-11293508D02*
X13533991Y-11303031D01*
X13533991Y-11303031D02*
X13543515Y-11322079D01*
X13543515Y-11322079D02*
X13553039Y-11360174D01*
X13553039Y-11360174D02*
X13553039Y-11407793D01*
X13553039Y-11407793D02*
X13543515Y-11445888D01*
X13543515Y-11445888D02*
X13533991Y-11464936D01*
X13533991Y-11464936D02*
X13524467Y-11474460D01*
X13524467Y-11474460D02*
X13505420Y-11483984D01*
X13505420Y-11483984D02*
X13486372Y-11483984D01*
X13486372Y-11483984D02*
X13467324Y-11474460D01*
X13467324Y-11474460D02*
X13457801Y-11464936D01*
X13457801Y-11464936D02*
X13448277Y-11445888D01*
X13448277Y-11445888D02*
X13438753Y-11407793D01*
X13438753Y-11407793D02*
X13438753Y-11360174D01*
X13438753Y-11360174D02*
X13448277Y-11322079D01*
X13448277Y-11322079D02*
X13457801Y-11303031D01*
X13457801Y-11303031D02*
X13467324Y-11293508D01*
X13467324Y-11293508D02*
X13486372Y-11283984D01*
X13638753Y-11464936D02*
X13648277Y-11474460D01*
X13648277Y-11474460D02*
X13638753Y-11483984D01*
X13638753Y-11483984D02*
X13629229Y-11474460D01*
X13629229Y-11474460D02*
X13638753Y-11464936D01*
X13638753Y-11464936D02*
X13638753Y-11483984D01*
X13714943Y-11283984D02*
X13838753Y-11283984D01*
X13838753Y-11283984D02*
X13772086Y-11360174D01*
X13772086Y-11360174D02*
X13800658Y-11360174D01*
X13800658Y-11360174D02*
X13819705Y-11369698D01*
X13819705Y-11369698D02*
X13829229Y-11379222D01*
X13829229Y-11379222D02*
X13838753Y-11398269D01*
X13838753Y-11398269D02*
X13838753Y-11445888D01*
X13838753Y-11445888D02*
X13829229Y-11464936D01*
X13829229Y-11464936D02*
X13819705Y-11474460D01*
X13819705Y-11474460D02*
X13800658Y-11483984D01*
X13800658Y-11483984D02*
X13743515Y-11483984D01*
X13743515Y-11483984D02*
X13724467Y-11474460D01*
X13724467Y-11474460D02*
X13714943Y-11464936D01*
X13962562Y-11283984D02*
X13981610Y-11283984D01*
X13981610Y-11283984D02*
X14000658Y-11293508D01*
X14000658Y-11293508D02*
X14010182Y-11303031D01*
X14010182Y-11303031D02*
X14019705Y-11322079D01*
X14019705Y-11322079D02*
X14029229Y-11360174D01*
X14029229Y-11360174D02*
X14029229Y-11407793D01*
X14029229Y-11407793D02*
X14019705Y-11445888D01*
X14019705Y-11445888D02*
X14010182Y-11464936D01*
X14010182Y-11464936D02*
X14000658Y-11474460D01*
X14000658Y-11474460D02*
X13981610Y-11483984D01*
X13981610Y-11483984D02*
X13962562Y-11483984D01*
X13962562Y-11483984D02*
X13943515Y-11474460D01*
X13943515Y-11474460D02*
X13933991Y-11464936D01*
X13933991Y-11464936D02*
X13924467Y-11445888D01*
X13924467Y-11445888D02*
X13914943Y-11407793D01*
X13914943Y-11407793D02*
X13914943Y-11360174D01*
X13914943Y-11360174D02*
X13924467Y-11322079D01*
X13924467Y-11322079D02*
X13933991Y-11303031D01*
X13933991Y-11303031D02*
X13943515Y-11293508D01*
X13943515Y-11293508D02*
X13962562Y-11283984D01*
X14153039Y-11283984D02*
X14172086Y-11283984D01*
X14172086Y-11283984D02*
X14191134Y-11293508D01*
X14191134Y-11293508D02*
X14200658Y-11303031D01*
X14200658Y-11303031D02*
X14210182Y-11322079D01*
X14210182Y-11322079D02*
X14219705Y-11360174D01*
X14219705Y-11360174D02*
X14219705Y-11407793D01*
X14219705Y-11407793D02*
X14210182Y-11445888D01*
X14210182Y-11445888D02*
X14200658Y-11464936D01*
X14200658Y-11464936D02*
X14191134Y-11474460D01*
X14191134Y-11474460D02*
X14172086Y-11483984D01*
X14172086Y-11483984D02*
X14153039Y-11483984D01*
X14153039Y-11483984D02*
X14133991Y-11474460D01*
X14133991Y-11474460D02*
X14124467Y-11464936D01*
X14124467Y-11464936D02*
X14114943Y-11445888D01*
X14114943Y-11445888D02*
X14105420Y-11407793D01*
X14105420Y-11407793D02*
X14105420Y-11360174D01*
X14105420Y-11360174D02*
X14114943Y-11322079D01*
X14114943Y-11322079D02*
X14124467Y-11303031D01*
X14124467Y-11303031D02*
X14133991Y-11293508D01*
X14133991Y-11293508D02*
X14153039Y-11283984D01*
X14305420Y-11483984D02*
X14305420Y-11350650D01*
X14305420Y-11369698D02*
X14314943Y-11360174D01*
X14314943Y-11360174D02*
X14333991Y-11350650D01*
X14333991Y-11350650D02*
X14362563Y-11350650D01*
X14362563Y-11350650D02*
X14381610Y-11360174D01*
X14381610Y-11360174D02*
X14391134Y-11379222D01*
X14391134Y-11379222D02*
X14391134Y-11483984D01*
X14391134Y-11379222D02*
X14400658Y-11360174D01*
X14400658Y-11360174D02*
X14419705Y-11350650D01*
X14419705Y-11350650D02*
X14448277Y-11350650D01*
X14448277Y-11350650D02*
X14467324Y-11360174D01*
X14467324Y-11360174D02*
X14476848Y-11379222D01*
X14476848Y-11379222D02*
X14476848Y-11483984D01*
X14572086Y-11483984D02*
X14572086Y-11350650D01*
X14572086Y-11369698D02*
X14581610Y-11360174D01*
X14581610Y-11360174D02*
X14600658Y-11350650D01*
X14600658Y-11350650D02*
X14629229Y-11350650D01*
X14629229Y-11350650D02*
X14648277Y-11360174D01*
X14648277Y-11360174D02*
X14657801Y-11379222D01*
X14657801Y-11379222D02*
X14657801Y-11483984D01*
X14657801Y-11379222D02*
X14667324Y-11360174D01*
X14667324Y-11360174D02*
X14686372Y-11350650D01*
X14686372Y-11350650D02*
X14714943Y-11350650D01*
X14714943Y-11350650D02*
X14733991Y-11360174D01*
X14733991Y-11360174D02*
X14743515Y-11379222D01*
X14743515Y-11379222D02*
X14743515Y-11483984D01*
X15133991Y-11274460D02*
X14962563Y-11531603D01*
X15391134Y-11283984D02*
X15410182Y-11283984D01*
X15410182Y-11283984D02*
X15429229Y-11293508D01*
X15429229Y-11293508D02*
X15438753Y-11303031D01*
X15438753Y-11303031D02*
X15448277Y-11322079D01*
X15448277Y-11322079D02*
X15457801Y-11360174D01*
X15457801Y-11360174D02*
X15457801Y-11407793D01*
X15457801Y-11407793D02*
X15448277Y-11445888D01*
X15448277Y-11445888D02*
X15438753Y-11464936D01*
X15438753Y-11464936D02*
X15429229Y-11474460D01*
X15429229Y-11474460D02*
X15410182Y-11483984D01*
X15410182Y-11483984D02*
X15391134Y-11483984D01*
X15391134Y-11483984D02*
X15372086Y-11474460D01*
X15372086Y-11474460D02*
X15362563Y-11464936D01*
X15362563Y-11464936D02*
X15353039Y-11445888D01*
X15353039Y-11445888D02*
X15343515Y-11407793D01*
X15343515Y-11407793D02*
X15343515Y-11360174D01*
X15343515Y-11360174D02*
X15353039Y-11322079D01*
X15353039Y-11322079D02*
X15362563Y-11303031D01*
X15362563Y-11303031D02*
X15372086Y-11293508D01*
X15372086Y-11293508D02*
X15391134Y-11283984D01*
X15543515Y-11464936D02*
X15553039Y-11474460D01*
X15553039Y-11474460D02*
X15543515Y-11483984D01*
X15543515Y-11483984D02*
X15533991Y-11474460D01*
X15533991Y-11474460D02*
X15543515Y-11464936D01*
X15543515Y-11464936D02*
X15543515Y-11483984D01*
X15676848Y-11283984D02*
X15695896Y-11283984D01*
X15695896Y-11283984D02*
X15714944Y-11293508D01*
X15714944Y-11293508D02*
X15724467Y-11303031D01*
X15724467Y-11303031D02*
X15733991Y-11322079D01*
X15733991Y-11322079D02*
X15743515Y-11360174D01*
X15743515Y-11360174D02*
X15743515Y-11407793D01*
X15743515Y-11407793D02*
X15733991Y-11445888D01*
X15733991Y-11445888D02*
X15724467Y-11464936D01*
X15724467Y-11464936D02*
X15714944Y-11474460D01*
X15714944Y-11474460D02*
X15695896Y-11483984D01*
X15695896Y-11483984D02*
X15676848Y-11483984D01*
X15676848Y-11483984D02*
X15657801Y-11474460D01*
X15657801Y-11474460D02*
X15648277Y-11464936D01*
X15648277Y-11464936D02*
X15638753Y-11445888D01*
X15638753Y-11445888D02*
X15629229Y-11407793D01*
X15629229Y-11407793D02*
X15629229Y-11360174D01*
X15629229Y-11360174D02*
X15638753Y-11322079D01*
X15638753Y-11322079D02*
X15648277Y-11303031D01*
X15648277Y-11303031D02*
X15657801Y-11293508D01*
X15657801Y-11293508D02*
X15676848Y-11283984D01*
X15933991Y-11483984D02*
X15819706Y-11483984D01*
X15876848Y-11483984D02*
X15876848Y-11283984D01*
X15876848Y-11283984D02*
X15857801Y-11312555D01*
X15857801Y-11312555D02*
X15838753Y-11331603D01*
X15838753Y-11331603D02*
X15819706Y-11341127D01*
X16124467Y-11483984D02*
X16010182Y-11483984D01*
X16067325Y-11483984D02*
X16067325Y-11283984D01*
X16067325Y-11283984D02*
X16048277Y-11312555D01*
X16048277Y-11312555D02*
X16029229Y-11331603D01*
X16029229Y-11331603D02*
X16010182Y-11341127D01*
X16238753Y-11369698D02*
X16219706Y-11360174D01*
X16219706Y-11360174D02*
X16210182Y-11350650D01*
X16210182Y-11350650D02*
X16200658Y-11331603D01*
X16200658Y-11331603D02*
X16200658Y-11322079D01*
X16200658Y-11322079D02*
X16210182Y-11303031D01*
X16210182Y-11303031D02*
X16219706Y-11293508D01*
X16219706Y-11293508D02*
X16238753Y-11283984D01*
X16238753Y-11283984D02*
X16276848Y-11283984D01*
X16276848Y-11283984D02*
X16295896Y-11293508D01*
X16295896Y-11293508D02*
X16305420Y-11303031D01*
X16305420Y-11303031D02*
X16314944Y-11322079D01*
X16314944Y-11322079D02*
X16314944Y-11331603D01*
X16314944Y-11331603D02*
X16305420Y-11350650D01*
X16305420Y-11350650D02*
X16295896Y-11360174D01*
X16295896Y-11360174D02*
X16276848Y-11369698D01*
X16276848Y-11369698D02*
X16238753Y-11369698D01*
X16238753Y-11369698D02*
X16219706Y-11379222D01*
X16219706Y-11379222D02*
X16210182Y-11388746D01*
X16210182Y-11388746D02*
X16200658Y-11407793D01*
X16200658Y-11407793D02*
X16200658Y-11445888D01*
X16200658Y-11445888D02*
X16210182Y-11464936D01*
X16210182Y-11464936D02*
X16219706Y-11474460D01*
X16219706Y-11474460D02*
X16238753Y-11483984D01*
X16238753Y-11483984D02*
X16276848Y-11483984D01*
X16276848Y-11483984D02*
X16295896Y-11474460D01*
X16295896Y-11474460D02*
X16305420Y-11464936D01*
X16305420Y-11464936D02*
X16314944Y-11445888D01*
X16314944Y-11445888D02*
X16314944Y-11407793D01*
X16314944Y-11407793D02*
X16305420Y-11388746D01*
X16305420Y-11388746D02*
X16295896Y-11379222D01*
X16295896Y-11379222D02*
X16276848Y-11369698D01*
X16391134Y-11283984D02*
X16391134Y-11322079D01*
X16467325Y-11283984D02*
X16467325Y-11322079D01*
X16762563Y-11560174D02*
X16753039Y-11550650D01*
X16753039Y-11550650D02*
X16733991Y-11522079D01*
X16733991Y-11522079D02*
X16724468Y-11503031D01*
X16724468Y-11503031D02*
X16714944Y-11474460D01*
X16714944Y-11474460D02*
X16705420Y-11426841D01*
X16705420Y-11426841D02*
X16705420Y-11388746D01*
X16705420Y-11388746D02*
X16714944Y-11341127D01*
X16714944Y-11341127D02*
X16724468Y-11312555D01*
X16724468Y-11312555D02*
X16733991Y-11293508D01*
X16733991Y-11293508D02*
X16753039Y-11264936D01*
X16753039Y-11264936D02*
X16762563Y-11255412D01*
X16829230Y-11303031D02*
X16838753Y-11293508D01*
X16838753Y-11293508D02*
X16857801Y-11283984D01*
X16857801Y-11283984D02*
X16905420Y-11283984D01*
X16905420Y-11283984D02*
X16924468Y-11293508D01*
X16924468Y-11293508D02*
X16933991Y-11303031D01*
X16933991Y-11303031D02*
X16943515Y-11322079D01*
X16943515Y-11322079D02*
X16943515Y-11341127D01*
X16943515Y-11341127D02*
X16933991Y-11369698D01*
X16933991Y-11369698D02*
X16819706Y-11483984D01*
X16819706Y-11483984D02*
X16943515Y-11483984D01*
X17133991Y-11483984D02*
X17019706Y-11483984D01*
X17076849Y-11483984D02*
X17076849Y-11283984D01*
X17076849Y-11283984D02*
X17057801Y-11312555D01*
X17057801Y-11312555D02*
X17038753Y-11331603D01*
X17038753Y-11331603D02*
X17019706Y-11341127D01*
X17372087Y-11483984D02*
X17372087Y-11283984D01*
X17457801Y-11483984D02*
X17457801Y-11379222D01*
X17457801Y-11379222D02*
X17448277Y-11360174D01*
X17448277Y-11360174D02*
X17429230Y-11350650D01*
X17429230Y-11350650D02*
X17400658Y-11350650D01*
X17400658Y-11350650D02*
X17381611Y-11360174D01*
X17381611Y-11360174D02*
X17372087Y-11369698D01*
X17581611Y-11483984D02*
X17562563Y-11474460D01*
X17562563Y-11474460D02*
X17553039Y-11464936D01*
X17553039Y-11464936D02*
X17543515Y-11445888D01*
X17543515Y-11445888D02*
X17543515Y-11388746D01*
X17543515Y-11388746D02*
X17553039Y-11369698D01*
X17553039Y-11369698D02*
X17562563Y-11360174D01*
X17562563Y-11360174D02*
X17581611Y-11350650D01*
X17581611Y-11350650D02*
X17610182Y-11350650D01*
X17610182Y-11350650D02*
X17629230Y-11360174D01*
X17629230Y-11360174D02*
X17638753Y-11369698D01*
X17638753Y-11369698D02*
X17648277Y-11388746D01*
X17648277Y-11388746D02*
X17648277Y-11445888D01*
X17648277Y-11445888D02*
X17638753Y-11464936D01*
X17638753Y-11464936D02*
X17629230Y-11474460D01*
X17629230Y-11474460D02*
X17610182Y-11483984D01*
X17610182Y-11483984D02*
X17581611Y-11483984D01*
X17762563Y-11483984D02*
X17743515Y-11474460D01*
X17743515Y-11474460D02*
X17733992Y-11455412D01*
X17733992Y-11455412D02*
X17733992Y-11283984D01*
X17914944Y-11474460D02*
X17895896Y-11483984D01*
X17895896Y-11483984D02*
X17857801Y-11483984D01*
X17857801Y-11483984D02*
X17838753Y-11474460D01*
X17838753Y-11474460D02*
X17829230Y-11455412D01*
X17829230Y-11455412D02*
X17829230Y-11379222D01*
X17829230Y-11379222D02*
X17838753Y-11360174D01*
X17838753Y-11360174D02*
X17857801Y-11350650D01*
X17857801Y-11350650D02*
X17895896Y-11350650D01*
X17895896Y-11350650D02*
X17914944Y-11360174D01*
X17914944Y-11360174D02*
X17924468Y-11379222D01*
X17924468Y-11379222D02*
X17924468Y-11398269D01*
X17924468Y-11398269D02*
X17829230Y-11417317D01*
X18000658Y-11474460D02*
X18019706Y-11483984D01*
X18019706Y-11483984D02*
X18057801Y-11483984D01*
X18057801Y-11483984D02*
X18076849Y-11474460D01*
X18076849Y-11474460D02*
X18086373Y-11455412D01*
X18086373Y-11455412D02*
X18086373Y-11445888D01*
X18086373Y-11445888D02*
X18076849Y-11426841D01*
X18076849Y-11426841D02*
X18057801Y-11417317D01*
X18057801Y-11417317D02*
X18029230Y-11417317D01*
X18029230Y-11417317D02*
X18010182Y-11407793D01*
X18010182Y-11407793D02*
X18000658Y-11388746D01*
X18000658Y-11388746D02*
X18000658Y-11379222D01*
X18000658Y-11379222D02*
X18010182Y-11360174D01*
X18010182Y-11360174D02*
X18029230Y-11350650D01*
X18029230Y-11350650D02*
X18057801Y-11350650D01*
X18057801Y-11350650D02*
X18076849Y-11360174D01*
X18153039Y-11560174D02*
X18162563Y-11550650D01*
X18162563Y-11550650D02*
X18181611Y-11522079D01*
X18181611Y-11522079D02*
X18191134Y-11503031D01*
X18191134Y-11503031D02*
X18200658Y-11474460D01*
X18200658Y-11474460D02*
X18210182Y-11426841D01*
X18210182Y-11426841D02*
X18210182Y-11388746D01*
X18210182Y-11388746D02*
X18200658Y-11341127D01*
X18200658Y-11341127D02*
X18191134Y-11312555D01*
X18191134Y-11312555D02*
X18181611Y-11293508D01*
X18181611Y-11293508D02*
X18162563Y-11264936D01*
X18162563Y-11264936D02*
X18153039Y-11255412D01*
D12*
X13187500Y-11656500D02*
G75*
G02*
X13087500Y-11656500I-50000J0D01*
G01*
X13087500Y-11656500D02*
G75*
G02*
X13187500Y-11656500I50000J0D01*
G01*
D11*
X13553039Y-11747984D02*
X13438753Y-11747984D01*
X13495896Y-11747984D02*
X13495896Y-11547984D01*
X13495896Y-11547984D02*
X13476848Y-11576555D01*
X13476848Y-11576555D02*
X13457801Y-11595603D01*
X13457801Y-11595603D02*
X13438753Y-11605127D01*
X13638753Y-11728936D02*
X13648277Y-11738460D01*
X13648277Y-11738460D02*
X13638753Y-11747984D01*
X13638753Y-11747984D02*
X13629229Y-11738460D01*
X13629229Y-11738460D02*
X13638753Y-11728936D01*
X13638753Y-11728936D02*
X13638753Y-11747984D01*
X13772086Y-11547984D02*
X13791134Y-11547984D01*
X13791134Y-11547984D02*
X13810182Y-11557508D01*
X13810182Y-11557508D02*
X13819705Y-11567031D01*
X13819705Y-11567031D02*
X13829229Y-11586079D01*
X13829229Y-11586079D02*
X13838753Y-11624174D01*
X13838753Y-11624174D02*
X13838753Y-11671793D01*
X13838753Y-11671793D02*
X13829229Y-11709888D01*
X13829229Y-11709888D02*
X13819705Y-11728936D01*
X13819705Y-11728936D02*
X13810182Y-11738460D01*
X13810182Y-11738460D02*
X13791134Y-11747984D01*
X13791134Y-11747984D02*
X13772086Y-11747984D01*
X13772086Y-11747984D02*
X13753039Y-11738460D01*
X13753039Y-11738460D02*
X13743515Y-11728936D01*
X13743515Y-11728936D02*
X13733991Y-11709888D01*
X13733991Y-11709888D02*
X13724467Y-11671793D01*
X13724467Y-11671793D02*
X13724467Y-11624174D01*
X13724467Y-11624174D02*
X13733991Y-11586079D01*
X13733991Y-11586079D02*
X13743515Y-11567031D01*
X13743515Y-11567031D02*
X13753039Y-11557508D01*
X13753039Y-11557508D02*
X13772086Y-11547984D01*
X13962562Y-11547984D02*
X13981610Y-11547984D01*
X13981610Y-11547984D02*
X14000658Y-11557508D01*
X14000658Y-11557508D02*
X14010182Y-11567031D01*
X14010182Y-11567031D02*
X14019705Y-11586079D01*
X14019705Y-11586079D02*
X14029229Y-11624174D01*
X14029229Y-11624174D02*
X14029229Y-11671793D01*
X14029229Y-11671793D02*
X14019705Y-11709888D01*
X14019705Y-11709888D02*
X14010182Y-11728936D01*
X14010182Y-11728936D02*
X14000658Y-11738460D01*
X14000658Y-11738460D02*
X13981610Y-11747984D01*
X13981610Y-11747984D02*
X13962562Y-11747984D01*
X13962562Y-11747984D02*
X13943515Y-11738460D01*
X13943515Y-11738460D02*
X13933991Y-11728936D01*
X13933991Y-11728936D02*
X13924467Y-11709888D01*
X13924467Y-11709888D02*
X13914943Y-11671793D01*
X13914943Y-11671793D02*
X13914943Y-11624174D01*
X13914943Y-11624174D02*
X13924467Y-11586079D01*
X13924467Y-11586079D02*
X13933991Y-11567031D01*
X13933991Y-11567031D02*
X13943515Y-11557508D01*
X13943515Y-11557508D02*
X13962562Y-11547984D01*
X14153039Y-11547984D02*
X14172086Y-11547984D01*
X14172086Y-11547984D02*
X14191134Y-11557508D01*
X14191134Y-11557508D02*
X14200658Y-11567031D01*
X14200658Y-11567031D02*
X14210182Y-11586079D01*
X14210182Y-11586079D02*
X14219705Y-11624174D01*
X14219705Y-11624174D02*
X14219705Y-11671793D01*
X14219705Y-11671793D02*
X14210182Y-11709888D01*
X14210182Y-11709888D02*
X14200658Y-11728936D01*
X14200658Y-11728936D02*
X14191134Y-11738460D01*
X14191134Y-11738460D02*
X14172086Y-11747984D01*
X14172086Y-11747984D02*
X14153039Y-11747984D01*
X14153039Y-11747984D02*
X14133991Y-11738460D01*
X14133991Y-11738460D02*
X14124467Y-11728936D01*
X14124467Y-11728936D02*
X14114943Y-11709888D01*
X14114943Y-11709888D02*
X14105420Y-11671793D01*
X14105420Y-11671793D02*
X14105420Y-11624174D01*
X14105420Y-11624174D02*
X14114943Y-11586079D01*
X14114943Y-11586079D02*
X14124467Y-11567031D01*
X14124467Y-11567031D02*
X14133991Y-11557508D01*
X14133991Y-11557508D02*
X14153039Y-11547984D01*
X14305420Y-11747984D02*
X14305420Y-11614650D01*
X14305420Y-11633698D02*
X14314943Y-11624174D01*
X14314943Y-11624174D02*
X14333991Y-11614650D01*
X14333991Y-11614650D02*
X14362563Y-11614650D01*
X14362563Y-11614650D02*
X14381610Y-11624174D01*
X14381610Y-11624174D02*
X14391134Y-11643222D01*
X14391134Y-11643222D02*
X14391134Y-11747984D01*
X14391134Y-11643222D02*
X14400658Y-11624174D01*
X14400658Y-11624174D02*
X14419705Y-11614650D01*
X14419705Y-11614650D02*
X14448277Y-11614650D01*
X14448277Y-11614650D02*
X14467324Y-11624174D01*
X14467324Y-11624174D02*
X14476848Y-11643222D01*
X14476848Y-11643222D02*
X14476848Y-11747984D01*
X14572086Y-11747984D02*
X14572086Y-11614650D01*
X14572086Y-11633698D02*
X14581610Y-11624174D01*
X14581610Y-11624174D02*
X14600658Y-11614650D01*
X14600658Y-11614650D02*
X14629229Y-11614650D01*
X14629229Y-11614650D02*
X14648277Y-11624174D01*
X14648277Y-11624174D02*
X14657801Y-11643222D01*
X14657801Y-11643222D02*
X14657801Y-11747984D01*
X14657801Y-11643222D02*
X14667324Y-11624174D01*
X14667324Y-11624174D02*
X14686372Y-11614650D01*
X14686372Y-11614650D02*
X14714943Y-11614650D01*
X14714943Y-11614650D02*
X14733991Y-11624174D01*
X14733991Y-11624174D02*
X14743515Y-11643222D01*
X14743515Y-11643222D02*
X14743515Y-11747984D01*
X15133991Y-11538460D02*
X14962563Y-11795603D01*
X15391134Y-11547984D02*
X15410182Y-11547984D01*
X15410182Y-11547984D02*
X15429229Y-11557508D01*
X15429229Y-11557508D02*
X15438753Y-11567031D01*
X15438753Y-11567031D02*
X15448277Y-11586079D01*
X15448277Y-11586079D02*
X15457801Y-11624174D01*
X15457801Y-11624174D02*
X15457801Y-11671793D01*
X15457801Y-11671793D02*
X15448277Y-11709888D01*
X15448277Y-11709888D02*
X15438753Y-11728936D01*
X15438753Y-11728936D02*
X15429229Y-11738460D01*
X15429229Y-11738460D02*
X15410182Y-11747984D01*
X15410182Y-11747984D02*
X15391134Y-11747984D01*
X15391134Y-11747984D02*
X15372086Y-11738460D01*
X15372086Y-11738460D02*
X15362563Y-11728936D01*
X15362563Y-11728936D02*
X15353039Y-11709888D01*
X15353039Y-11709888D02*
X15343515Y-11671793D01*
X15343515Y-11671793D02*
X15343515Y-11624174D01*
X15343515Y-11624174D02*
X15353039Y-11586079D01*
X15353039Y-11586079D02*
X15362563Y-11567031D01*
X15362563Y-11567031D02*
X15372086Y-11557508D01*
X15372086Y-11557508D02*
X15391134Y-11547984D01*
X15543515Y-11728936D02*
X15553039Y-11738460D01*
X15553039Y-11738460D02*
X15543515Y-11747984D01*
X15543515Y-11747984D02*
X15533991Y-11738460D01*
X15533991Y-11738460D02*
X15543515Y-11728936D01*
X15543515Y-11728936D02*
X15543515Y-11747984D01*
X15676848Y-11547984D02*
X15695896Y-11547984D01*
X15695896Y-11547984D02*
X15714944Y-11557508D01*
X15714944Y-11557508D02*
X15724467Y-11567031D01*
X15724467Y-11567031D02*
X15733991Y-11586079D01*
X15733991Y-11586079D02*
X15743515Y-11624174D01*
X15743515Y-11624174D02*
X15743515Y-11671793D01*
X15743515Y-11671793D02*
X15733991Y-11709888D01*
X15733991Y-11709888D02*
X15724467Y-11728936D01*
X15724467Y-11728936D02*
X15714944Y-11738460D01*
X15714944Y-11738460D02*
X15695896Y-11747984D01*
X15695896Y-11747984D02*
X15676848Y-11747984D01*
X15676848Y-11747984D02*
X15657801Y-11738460D01*
X15657801Y-11738460D02*
X15648277Y-11728936D01*
X15648277Y-11728936D02*
X15638753Y-11709888D01*
X15638753Y-11709888D02*
X15629229Y-11671793D01*
X15629229Y-11671793D02*
X15629229Y-11624174D01*
X15629229Y-11624174D02*
X15638753Y-11586079D01*
X15638753Y-11586079D02*
X15648277Y-11567031D01*
X15648277Y-11567031D02*
X15657801Y-11557508D01*
X15657801Y-11557508D02*
X15676848Y-11547984D01*
X15810182Y-11547984D02*
X15933991Y-11547984D01*
X15933991Y-11547984D02*
X15867325Y-11624174D01*
X15867325Y-11624174D02*
X15895896Y-11624174D01*
X15895896Y-11624174D02*
X15914944Y-11633698D01*
X15914944Y-11633698D02*
X15924467Y-11643222D01*
X15924467Y-11643222D02*
X15933991Y-11662269D01*
X15933991Y-11662269D02*
X15933991Y-11709888D01*
X15933991Y-11709888D02*
X15924467Y-11728936D01*
X15924467Y-11728936D02*
X15914944Y-11738460D01*
X15914944Y-11738460D02*
X15895896Y-11747984D01*
X15895896Y-11747984D02*
X15838753Y-11747984D01*
X15838753Y-11747984D02*
X15819706Y-11738460D01*
X15819706Y-11738460D02*
X15810182Y-11728936D01*
X16029229Y-11747984D02*
X16067325Y-11747984D01*
X16067325Y-11747984D02*
X16086372Y-11738460D01*
X16086372Y-11738460D02*
X16095896Y-11728936D01*
X16095896Y-11728936D02*
X16114944Y-11700365D01*
X16114944Y-11700365D02*
X16124467Y-11662269D01*
X16124467Y-11662269D02*
X16124467Y-11586079D01*
X16124467Y-11586079D02*
X16114944Y-11567031D01*
X16114944Y-11567031D02*
X16105420Y-11557508D01*
X16105420Y-11557508D02*
X16086372Y-11547984D01*
X16086372Y-11547984D02*
X16048277Y-11547984D01*
X16048277Y-11547984D02*
X16029229Y-11557508D01*
X16029229Y-11557508D02*
X16019706Y-11567031D01*
X16019706Y-11567031D02*
X16010182Y-11586079D01*
X16010182Y-11586079D02*
X16010182Y-11633698D01*
X16010182Y-11633698D02*
X16019706Y-11652746D01*
X16019706Y-11652746D02*
X16029229Y-11662269D01*
X16029229Y-11662269D02*
X16048277Y-11671793D01*
X16048277Y-11671793D02*
X16086372Y-11671793D01*
X16086372Y-11671793D02*
X16105420Y-11662269D01*
X16105420Y-11662269D02*
X16114944Y-11652746D01*
X16114944Y-11652746D02*
X16124467Y-11633698D01*
X16295896Y-11614650D02*
X16295896Y-11747984D01*
X16248277Y-11538460D02*
X16200658Y-11681317D01*
X16200658Y-11681317D02*
X16324467Y-11681317D01*
X16391134Y-11547984D02*
X16391134Y-11586079D01*
X16467325Y-11547984D02*
X16467325Y-11586079D01*
X16762563Y-11824174D02*
X16753039Y-11814650D01*
X16753039Y-11814650D02*
X16733991Y-11786079D01*
X16733991Y-11786079D02*
X16724468Y-11767031D01*
X16724468Y-11767031D02*
X16714944Y-11738460D01*
X16714944Y-11738460D02*
X16705420Y-11690841D01*
X16705420Y-11690841D02*
X16705420Y-11652746D01*
X16705420Y-11652746D02*
X16714944Y-11605127D01*
X16714944Y-11605127D02*
X16724468Y-11576555D01*
X16724468Y-11576555D02*
X16733991Y-11557508D01*
X16733991Y-11557508D02*
X16753039Y-11528936D01*
X16753039Y-11528936D02*
X16762563Y-11519412D01*
X16924468Y-11614650D02*
X16924468Y-11747984D01*
X16876849Y-11538460D02*
X16829230Y-11681317D01*
X16829230Y-11681317D02*
X16953039Y-11681317D01*
X17181611Y-11747984D02*
X17181611Y-11547984D01*
X17267325Y-11747984D02*
X17267325Y-11643222D01*
X17267325Y-11643222D02*
X17257801Y-11624174D01*
X17257801Y-11624174D02*
X17238753Y-11614650D01*
X17238753Y-11614650D02*
X17210182Y-11614650D01*
X17210182Y-11614650D02*
X17191134Y-11624174D01*
X17191134Y-11624174D02*
X17181611Y-11633698D01*
X17391134Y-11747984D02*
X17372087Y-11738460D01*
X17372087Y-11738460D02*
X17362563Y-11728936D01*
X17362563Y-11728936D02*
X17353039Y-11709888D01*
X17353039Y-11709888D02*
X17353039Y-11652746D01*
X17353039Y-11652746D02*
X17362563Y-11633698D01*
X17362563Y-11633698D02*
X17372087Y-11624174D01*
X17372087Y-11624174D02*
X17391134Y-11614650D01*
X17391134Y-11614650D02*
X17419706Y-11614650D01*
X17419706Y-11614650D02*
X17438753Y-11624174D01*
X17438753Y-11624174D02*
X17448277Y-11633698D01*
X17448277Y-11633698D02*
X17457801Y-11652746D01*
X17457801Y-11652746D02*
X17457801Y-11709888D01*
X17457801Y-11709888D02*
X17448277Y-11728936D01*
X17448277Y-11728936D02*
X17438753Y-11738460D01*
X17438753Y-11738460D02*
X17419706Y-11747984D01*
X17419706Y-11747984D02*
X17391134Y-11747984D01*
X17572087Y-11747984D02*
X17553039Y-11738460D01*
X17553039Y-11738460D02*
X17543515Y-11719412D01*
X17543515Y-11719412D02*
X17543515Y-11547984D01*
X17724468Y-11738460D02*
X17705420Y-11747984D01*
X17705420Y-11747984D02*
X17667325Y-11747984D01*
X17667325Y-11747984D02*
X17648277Y-11738460D01*
X17648277Y-11738460D02*
X17638753Y-11719412D01*
X17638753Y-11719412D02*
X17638753Y-11643222D01*
X17638753Y-11643222D02*
X17648277Y-11624174D01*
X17648277Y-11624174D02*
X17667325Y-11614650D01*
X17667325Y-11614650D02*
X17705420Y-11614650D01*
X17705420Y-11614650D02*
X17724468Y-11624174D01*
X17724468Y-11624174D02*
X17733992Y-11643222D01*
X17733992Y-11643222D02*
X17733992Y-11662269D01*
X17733992Y-11662269D02*
X17638753Y-11681317D01*
X17810182Y-11738460D02*
X17829230Y-11747984D01*
X17829230Y-11747984D02*
X17867325Y-11747984D01*
X17867325Y-11747984D02*
X17886373Y-11738460D01*
X17886373Y-11738460D02*
X17895896Y-11719412D01*
X17895896Y-11719412D02*
X17895896Y-11709888D01*
X17895896Y-11709888D02*
X17886373Y-11690841D01*
X17886373Y-11690841D02*
X17867325Y-11681317D01*
X17867325Y-11681317D02*
X17838753Y-11681317D01*
X17838753Y-11681317D02*
X17819706Y-11671793D01*
X17819706Y-11671793D02*
X17810182Y-11652746D01*
X17810182Y-11652746D02*
X17810182Y-11643222D01*
X17810182Y-11643222D02*
X17819706Y-11624174D01*
X17819706Y-11624174D02*
X17838753Y-11614650D01*
X17838753Y-11614650D02*
X17867325Y-11614650D01*
X17867325Y-11614650D02*
X17886373Y-11624174D01*
X18133992Y-11671793D02*
X18286373Y-11671793D01*
X18210182Y-11747984D02*
X18210182Y-11595603D01*
X18629230Y-11547984D02*
X18533992Y-11547984D01*
X18533992Y-11547984D02*
X18524468Y-11643222D01*
X18524468Y-11643222D02*
X18533992Y-11633698D01*
X18533992Y-11633698D02*
X18553039Y-11624174D01*
X18553039Y-11624174D02*
X18600658Y-11624174D01*
X18600658Y-11624174D02*
X18619706Y-11633698D01*
X18619706Y-11633698D02*
X18629230Y-11643222D01*
X18629230Y-11643222D02*
X18638754Y-11662269D01*
X18638754Y-11662269D02*
X18638754Y-11709888D01*
X18638754Y-11709888D02*
X18629230Y-11728936D01*
X18629230Y-11728936D02*
X18619706Y-11738460D01*
X18619706Y-11738460D02*
X18600658Y-11747984D01*
X18600658Y-11747984D02*
X18553039Y-11747984D01*
X18553039Y-11747984D02*
X18533992Y-11738460D01*
X18533992Y-11738460D02*
X18524468Y-11728936D01*
X18867325Y-11738460D02*
X18886373Y-11747984D01*
X18886373Y-11747984D02*
X18924468Y-11747984D01*
X18924468Y-11747984D02*
X18943516Y-11738460D01*
X18943516Y-11738460D02*
X18953039Y-11719412D01*
X18953039Y-11719412D02*
X18953039Y-11709888D01*
X18953039Y-11709888D02*
X18943516Y-11690841D01*
X18943516Y-11690841D02*
X18924468Y-11681317D01*
X18924468Y-11681317D02*
X18895896Y-11681317D01*
X18895896Y-11681317D02*
X18876849Y-11671793D01*
X18876849Y-11671793D02*
X18867325Y-11652746D01*
X18867325Y-11652746D02*
X18867325Y-11643222D01*
X18867325Y-11643222D02*
X18876849Y-11624174D01*
X18876849Y-11624174D02*
X18895896Y-11614650D01*
X18895896Y-11614650D02*
X18924468Y-11614650D01*
X18924468Y-11614650D02*
X18943516Y-11624174D01*
X19067325Y-11747984D02*
X19048277Y-11738460D01*
X19048277Y-11738460D02*
X19038754Y-11719412D01*
X19038754Y-11719412D02*
X19038754Y-11547984D01*
X19172087Y-11747984D02*
X19153039Y-11738460D01*
X19153039Y-11738460D02*
X19143516Y-11728936D01*
X19143516Y-11728936D02*
X19133992Y-11709888D01*
X19133992Y-11709888D02*
X19133992Y-11652746D01*
X19133992Y-11652746D02*
X19143516Y-11633698D01*
X19143516Y-11633698D02*
X19153039Y-11624174D01*
X19153039Y-11624174D02*
X19172087Y-11614650D01*
X19172087Y-11614650D02*
X19200658Y-11614650D01*
X19200658Y-11614650D02*
X19219706Y-11624174D01*
X19219706Y-11624174D02*
X19229230Y-11633698D01*
X19229230Y-11633698D02*
X19238754Y-11652746D01*
X19238754Y-11652746D02*
X19238754Y-11709888D01*
X19238754Y-11709888D02*
X19229230Y-11728936D01*
X19229230Y-11728936D02*
X19219706Y-11738460D01*
X19219706Y-11738460D02*
X19200658Y-11747984D01*
X19200658Y-11747984D02*
X19172087Y-11747984D01*
X19295897Y-11614650D02*
X19372087Y-11614650D01*
X19324468Y-11547984D02*
X19324468Y-11719412D01*
X19324468Y-11719412D02*
X19333992Y-11738460D01*
X19333992Y-11738460D02*
X19353039Y-11747984D01*
X19353039Y-11747984D02*
X19372087Y-11747984D01*
X19429230Y-11738460D02*
X19448277Y-11747984D01*
X19448277Y-11747984D02*
X19486373Y-11747984D01*
X19486373Y-11747984D02*
X19505420Y-11738460D01*
X19505420Y-11738460D02*
X19514944Y-11719412D01*
X19514944Y-11719412D02*
X19514944Y-11709888D01*
X19514944Y-11709888D02*
X19505420Y-11690841D01*
X19505420Y-11690841D02*
X19486373Y-11681317D01*
X19486373Y-11681317D02*
X19457801Y-11681317D01*
X19457801Y-11681317D02*
X19438754Y-11671793D01*
X19438754Y-11671793D02*
X19429230Y-11652746D01*
X19429230Y-11652746D02*
X19429230Y-11643222D01*
X19429230Y-11643222D02*
X19438754Y-11624174D01*
X19438754Y-11624174D02*
X19457801Y-11614650D01*
X19457801Y-11614650D02*
X19486373Y-11614650D01*
X19486373Y-11614650D02*
X19505420Y-11624174D01*
X19581611Y-11824174D02*
X19591135Y-11814650D01*
X19591135Y-11814650D02*
X19610182Y-11786079D01*
X19610182Y-11786079D02*
X19619706Y-11767031D01*
X19619706Y-11767031D02*
X19629230Y-11738460D01*
X19629230Y-11738460D02*
X19638754Y-11690841D01*
X19638754Y-11690841D02*
X19638754Y-11652746D01*
X19638754Y-11652746D02*
X19629230Y-11605127D01*
X19629230Y-11605127D02*
X19619706Y-11576555D01*
X19619706Y-11576555D02*
X19610182Y-11557508D01*
X19610182Y-11557508D02*
X19591135Y-11528936D01*
X19591135Y-11528936D02*
X19581611Y-11519412D01*
M02*
